<svg width="24" height="24" viewBox="0 0 24 24" fill="none" xmlns="http://www.w3.org/2000/svg">
<rect width="24" height="24" rx="12" fill="#727A89"/>
<path d="M11.9965 11.5029C11.9231 11.4956 11.8352 11.4956 11.7545 11.5029C10.0097 11.4443 8.62402 10.0147 8.62402 8.25513C8.62402 6.45894 10.0756 5 11.8792 5C13.6753 5 15.1343 6.45894 15.1343 8.25513C15.127 10.0147 13.7413 11.4443 11.9965 11.5029Z" fill="white" fill-opacity="0.8"/>
<path d="M8.33065 14.2081C6.55645 15.3958 6.55645 17.3313 8.33065 18.5117C10.3468 19.8606 13.6532 19.8606 15.6694 18.5117C17.4435 17.324 17.4435 15.3885 15.6694 14.2081C13.6606 12.8665 10.3541 12.8665 8.33065 14.2081Z" fill="white" fill-opacity="0.8"/>
</svg>
