<svg width="40" height="40" viewBox="0 0 40 40" fill="none" xmlns="http://www.w3.org/2000/svg">
<path fill-rule="evenodd" clip-rule="evenodd" d="M6.99678 10.3722C5.89219 10.3722 4.97212 9.46278 5.23215 8.38803C6.11898 4.72189 9.40815 2 13.33 2H26.6634C30.5853 2 33.8745 4.72189 34.7613 8.38803C35.0213 9.46278 34.1013 10.3722 32.9967 10.3722H6.99678ZM5.23801 30.7735C4.97798 29.6988 5.89805 28.7893 7.00264 28.7893H33.0025C34.1071 28.7893 35.0272 29.6988 34.7672 30.7735C33.8803 34.4397 30.5912 37.1616 26.6693 37.1616H13.3359C9.41401 37.1616 6.12484 34.4397 5.23801 30.7735ZM4.16672 15.3933C1.86548 15.3933 0 17.2675 0 19.5794C0 21.8912 1.86548 23.7654 4.16672 23.7654H35.8333C38.1345 23.7654 40 21.8912 40 19.5794C40 17.2675 38.1345 15.3933 35.8333 15.3933H4.16672Z" fill="#E8BA41"/>
</svg>
